<mxfile host="app.diagrams.net" modified="2024-06-30T03:57:04.569Z" agent="Mozilla/5.0 (Macintosh; Intel Mac OS X 10_15_7) AppleWebKit/537.36 (KHTML, like Gecko) Chrome/126.0.0.0 Safari/537.36" etag="2XRvst7-6qhl_0OTqmWP" version="24.6.3" type="github">
  <diagram name="第 1 页" id="CKwHNL4QQdnIZkJhd2TK">
    <mxGraphModel dx="954" dy="540" grid="1" gridSize="10" guides="1" tooltips="1" connect="1" arrows="1" fold="1" page="1" pageScale="1" pageWidth="413" pageHeight="583" math="0" shadow="0">
      <root>
        <mxCell id="0" />
        <mxCell id="1" parent="0" />
        <mxCell id="FDfkP5XuBg6yXY6MCTS0-1" value="Node" style="html=1;outlineConnect=0;whiteSpace=wrap;fillColor=#dae8fc;strokeColor=#6c8ebf;shape=mxgraph.archimate3.application;appType=node;archiType=square;strokeWidth=2;" parent="1" vertex="1">
          <mxGeometry x="80" y="230" width="120" height="80" as="geometry" />
        </mxCell>
      </root>
    </mxGraphModel>
  </diagram>
</mxfile>
